Coordinates
version=1
nRows=65
nColumns=12
inDegrees=yes

Units are S.I. units (second, meters, Newtons, ...)
Angles are in degrees

endheader
time	SC_y	SC_z	SC_x	AC_y	AC_z	AC_x	GH_y	GH_z	GH_yy	EL_x	PS_y
       0.0              -56.92         -3.353          32.65          69.37          0.528          -6.64         -104.2          64.41         -129.9          42.33          50.35
   0.03059              -56.92         -3.347          32.66          69.37         0.5284         -6.638         -104.2          64.41         -129.9          42.33          50.35
   0.06117              -56.92          -3.34          32.66          69.37         0.5289         -6.636         -104.1          64.41         -129.8          42.33          50.35
   0.09176              -56.92         -3.334          32.66          69.36         0.5293         -6.634         -104.1          64.41         -129.8          42.33          50.36
    0.1223              -56.92         -3.326          32.66          69.36         0.5298         -6.632         -104.0          64.42         -129.7          42.33          50.36
    0.1529              -56.92         -3.319          32.67          69.35         0.5303         -6.629         -104.0          64.42         -129.7          42.33          50.36
    0.1835              -56.92          -3.31          32.67          69.35         0.5309         -6.627         -103.9          64.42         -129.6          42.33          50.37
    0.2141              -56.92         -3.301          32.67          69.35         0.5315         -6.624         -103.9          64.42         -129.5          42.33          50.37
    0.2447              -56.92         -3.292          32.67          69.34         0.5321         -6.621         -103.8          64.43         -129.5          42.34          50.38
    0.2753              -56.92         -3.282          32.68          69.34         0.5328         -6.618         -103.7          64.43         -129.4          42.34          50.38
    0.3059              -56.92         -3.271          32.68          69.33         0.5335         -6.615         -103.6          64.43         -129.3          42.34          50.39
    0.3365              -56.92         -3.259          32.69          69.32         0.5343         -6.612         -103.6          64.44         -129.2          42.34          50.39
     0.367              -56.92         -3.246          32.69          69.32         0.5352         -6.608         -103.5          64.44         -129.1          42.34           50.4
    0.3976              -56.92         -3.233          32.69          69.31         0.5361         -6.604         -103.4          64.44         -129.0          42.34          50.41
    0.4282              -56.92         -3.218           32.7           69.3         0.5371         -6.599         -103.3          64.45         -128.9          42.34          50.41
    0.4588              -56.92         -3.202          32.71           69.3         0.5382         -6.595         -103.2          64.45         -128.8          42.34          50.42
    0.4894              -56.92         -3.184          32.71          69.29         0.5394         -6.589         -103.1          64.46         -128.7          42.35          50.43
      0.52              -56.92         -3.165          32.72          69.28         0.5406         -6.584         -102.9          64.46         -128.5          42.35          50.44
    0.5506              -56.92         -3.145          32.73          69.27          0.542         -6.577         -102.8          64.47         -128.4          42.35          50.45
    0.5811              -56.92         -3.122          32.73          69.26         0.5436         -6.571         -102.6          64.47         -128.2          42.35          50.46
    0.6117              -56.91         -3.097          32.74          69.24         0.5452         -6.563         -102.5          64.48         -128.0          42.35          50.47
    0.6423              -56.91         -3.069          32.75          69.23         0.5471         -6.555         -102.3          64.49         -127.8          42.36          50.48
    0.6729              -56.91         -3.039          32.76          69.21         0.5491         -6.546         -102.1           64.5         -127.6          42.36           50.5
    0.7035              -56.91         -3.005          32.77           69.2         0.5514         -6.536         -101.9          64.51         -127.4          42.36          50.51
    0.7341              -56.91         -2.968          32.79          69.18         0.5539         -6.525         -101.6          64.52         -127.1          42.37          50.53
    0.7647              -56.91         -2.926           32.8          69.16         0.5567         -6.512         -101.3          64.53         -126.8          42.37          50.55
    0.7952              -56.91          -2.88          32.82          69.13         0.5599         -6.498         -101.0          64.54         -126.4          42.37          50.58
    0.8258              -56.91         -2.827          32.83          69.11         0.5634         -6.483         -100.6          64.55         -126.0          42.38           50.6
    0.8564               -56.9         -2.768          32.85          69.08         0.5674         -6.465         -100.2          64.57         -125.6          42.38          50.63
     0.887               -56.9           -2.7          32.88          69.04          0.572         -6.445         -99.78          64.59         -125.1          42.39          50.66
    0.9176               -56.9         -2.623           32.9           69.0         0.5771         -6.422         -99.26          64.61         -124.5           42.4           50.7
    0.9482               -56.9         -2.535          32.93          68.96         0.5831         -6.395         -98.66          64.63         -123.9          42.41          50.74
    0.9788              -56.89         -2.433          32.97          68.91           0.59         -6.365         -97.97          64.66         -123.1          42.42          50.79
     1.009              -56.89         -2.314          33.01          68.85         0.5979          -6.33         -97.17          64.69         -122.3          42.43          50.85
      1.04              -56.88         -2.176          33.06          68.78         0.6073         -6.288         -96.23          64.73         -121.3          42.44          50.91
     1.071              -56.88         -2.012          33.11           68.7         0.6183         -6.239         -95.12          64.78         -120.0          42.45          50.99
     1.101              -56.87         -1.818          33.18           68.6         0.6313         -6.181         -93.81          64.83         -118.6          42.47          51.09
     1.132              -56.86         -1.585          33.26          68.48          0.647         -6.112         -92.23           64.9         -116.9          42.49           51.2
     1.162              -56.86         -1.303          33.36          68.34          0.666         -6.028         -90.32          64.97         -114.8          42.52          51.33
     1.193              -56.84         -0.959          33.47          68.16         0.6892         -5.925         -87.99          65.07         -112.3          42.55           51.5
     1.223              -56.83        -0.5342          33.62          67.95         0.7178         -5.798         -85.11          65.18         -109.2          42.59          51.71
     1.254              -56.81      -0.004503           33.8          67.68         0.7534          -5.64         -81.52          65.33         -105.3          42.64          51.96
     1.285              -56.79         0.6628          34.03          67.34         0.7983         -5.441          -77.0          65.51         -100.4           42.7          52.28
     1.315              -56.76          1.511          34.32          66.92         0.8554         -5.188         -71.25          65.75         -94.15          42.78          52.69
     1.346              -56.73          2.597          34.69          66.37         0.9285         -4.864          -63.9          66.04         -86.17          42.88          53.21
     1.376              -56.68           3.99          35.17          65.66          1.022         -4.448         -54.46          66.43         -75.93          43.01          53.89
     1.407              -56.62           5.77          35.78          64.77          1.142         -3.917          -42.4          66.92         -62.85          43.18          54.74
     1.438              -56.55          8.008          36.54          63.64          1.293         -3.249         -27.24          67.53          -46.4          43.39          55.82
     1.468              -56.46          10.73          37.48          62.26          1.476         -2.435         -8.767          68.28         -26.36          43.64          57.14
     1.499              -56.36           13.9          38.56          60.66          1.689         -1.491          12.65          69.15         -3.125          43.93          58.66
     1.529              -56.24          17.32          39.73          58.94           1.92        -0.4697          35.84          70.09          22.03          44.25          60.31
      1.56              -56.13          20.74           40.9          57.21           2.15         0.5519          59.02          71.03          47.19          44.57          61.96
      1.59              -56.03           23.9          41.99          55.61          2.363          1.495          80.44           71.9          70.42          44.87          63.48
     1.621              -55.94          26.63          42.92          54.23          2.546          2.309          98.91          72.64          90.47          45.12           64.8
     1.652              -55.87          28.87          43.69           53.1          2.697          2.977          114.1          73.26          106.9          45.33          65.87
     1.682              -55.81          30.65           44.3          52.21          2.817          3.509          126.1          73.75          120.0          45.49          66.73
     1.713              -55.76          32.04          44.77           51.5           2.91          3.924          135.6          74.13          130.2          45.62           67.4
     1.743              -55.73          33.13          45.15          50.95          2.984          4.248          142.9          74.43          138.2          45.72          67.93
     1.774               -55.7          33.97          45.44          50.53          3.041          4.502          148.7          74.66          144.5           45.8          68.34
     1.805              -55.68          34.64          45.66          50.19          3.086          4.701          153.2          74.84          149.4          45.86          68.66
     1.835              -55.66          35.17          45.85          49.92          3.121          4.859          156.8          74.99          153.3          45.91          68.91
     1.866              -55.65           35.6          45.99          49.71           3.15          4.986          159.7          75.11          156.4          45.95          69.12
     1.896              -55.63          35.94          46.11          49.53          3.173          5.088          162.0           75.2          158.9          45.99          69.28
     1.927              -55.63          36.22          46.21          49.39          3.192          5.173          163.9          75.28          161.0          46.01          69.42
     1.958              -55.62          36.45          46.29          49.27          3.208          5.242          165.5          75.34          162.7          46.03          69.53
